<svg xmlns="http://www.w3.org/2000/svg" viewBox="0 0 512 512"><title>TV</title><g id="TV"><g id="TV-2" data-name="TV"><path d="M384.0006,175.766H280.9226l78.3528-78.3517L345.056,83.19l-87.5821,87.5773L169.9062,83.19,155.682,97.41l78.3527,78.3518H127.5994a33.5534,33.5534,0,0,0-33.516,33.516V395.2939a33.5565,33.5565,0,0,0,33.516,33.516H384.0006a33.5565,33.5565,0,0,0,33.516-33.516V209.2773A33.5525,33.5525,0,0,0,384.0006,175.766Zm13.4007,219.5279a13.41,13.41,0,0,1-13.4007,13.4055H127.5994a13.4161,13.4161,0,0,1-13.4007-13.4055V209.282a13.4185,13.4185,0,0,1,13.4007-13.4054H384.0006a13.4123,13.4123,0,0,1,13.4007,13.4054Z"/><path d="M134.5851,388.313h211.71V216.263h-211.71Zm20.1057-151.9395H326.18V368.2073H154.6908Z"/><rect x="360.8085" y="216.263" width="19.5494" height="20.1106"/><rect x="360.8085" y="246.571" width="19.5494" height="20.1106"/></g></g></svg>