<svg id="computer" xmlns="http://www.w3.org/2000/svg" viewBox="0 0 48 48"><title>computer</title><path d="M45,0H3A3,3,0,0,0,0,3V36a3,3,0,0,0,3,3H18.93a5.9,5.9,0,0,1-1.37,3H17a3,3,0,0,0-3,3v2a1,1,0,0,0,1,1H33a1,1,0,0,0,1-1V45a3,3,0,0,0-3-3h-.56a5.9,5.9,0,0,1-1.37-3H45a3,3,0,0,0,3-3V3A3,3,0,0,0,45,0ZM3,2H45a1,1,0,0,1,1,1V31H2V3A1,1,0,0,1,3,2ZM32,45v1H16V45a1,1,0,0,1,1-1H31A1,1,0,0,1,32,45Zm-4-3H20a8.12,8.12,0,0,0,1-3H27A8.12,8.12,0,0,0,28,42Zm17-5H3a1,1,0,0,1-1-1V33H46v3A1,1,0,0,1,45,37Z"/><path d="M5,29H43a1,1,0,0,0,1-1V5a1,1,0,0,0-1-1H5A1,1,0,0,0,4,5V28A1,1,0,0,0,5,29ZM6,6H42V27H6Z"/><path d="M24.71,34.29A1,1,0,1,0,24,36,1,1,0,0,0,24.71,34.29Z"/></svg>